<?xml version="1.0" encoding="utf-8"?>
<!-- Generator: Adobe Illustrator 19.1.0, SVG Export Plug-In . SVG Version: 6.00 Build 0)  -->
<svg version="1.1" id="Layer_1" xmlns="http://www.w3.org/2000/svg" xmlns:xlink="http://www.w3.org/1999/xlink" x="0px" y="0px"
	 viewBox="0 0 64 64" enable-background="new 0 0 64 64" xml:space="preserve">
<g id="Spray">
	<path d="M24.7637005,14.0867043h-0.1454983v-5.9038l-1-1h-7.0440006l-1,1v5.9038h-0.2997999
		c-1.0995998,0-2.1338005,0.5356998-2.7686005,1.4316998l-5.4559999,7.7040997v38.5135994
		c0,1.2471008,1.0146003,2.2613029,2.2606997,2.2613029h21.4990997c1.2080002,0,2.1914024-0.9830017,2.1914024-2.1914024V23.2225037
		l-5.4493027-7.6943998C26.9121017,14.6258039,25.8701019,14.0867043,24.7637005,14.0867043z M14.1387014,16.6741047
		c0.2596998-0.3677006,0.6844997-0.5874004,1.1357002-0.5874004h1.2997999l1-1v-5.9038h5.0440006v1.4540997
		c-0.0669003-0.0114994-0.1277008-0.0397997-0.1978016-0.0397997c-0.6609001,0-1.1974983,0.5363998-1.1974983,1.1975002
		c0,0.6611996,0.5365982,1.1977997,1.1974983,1.1977997c0.0701008,0,0.1309013-0.0283003,0.1978016-0.0401001v2.1343002l1,1
		h1.1454983c0.4589005,0,0.8906002,0.2236004,1.155201,0.5977001l4.2973995,6.0669003H9.8345013L14.1387014,16.6741047z
		 M30.8096008,61.997406H9.3105011c-0.1434994,0-0.2606993-0.1172028-0.2606993-0.2613029V24.711504
		c0.0658998,0.0135994,0.1271992,0.0398006,0.1973,0.0398006h21.7538986v37.0546989
		C31.0010014,61.9114037,30.9150009,61.997406,30.8096008,61.997406z"/>
	<path d="M51.4902,19.217104l-0.0303001-0.0098c-0.5097008-0.1802006-1.0996017,0.1000996-1.2695007,0.6098995
		c-0.0400009,0.1098003-0.0605011,0.2202015-0.0605011,0.3397999c0,0.4199009,0.2705002,0.7901001,0.6699028,0.9302006
		l0.0302963,0.0098c0.110302,0.0400009,0.2197037,0.0599995,0.3300018,0.0599995
		c0.4199982,0,0.7998009-0.2699986,0.9404984-0.669899c0.0898018-0.25,0.080101-0.5200005-0.0401001-0.7598
		C51.9501991,19.4871044,51.75,19.3074036,51.4902,19.217104z"/>
	<path d="M50.8300972,0.0574042l-0.0302963,0.0098c-0.3994026,0.1401-0.6699028,0.5097-0.6699028,0.9302
		c0,0.1196001,0.0205002,0.2299,0.0605011,0.3398c0.139698,0.3999001,0.5195007,0.6698999,0.9394989,0.6698999
		c0.110302,0,0.2304001-0.0199999,0.3300018-0.0599999l0.0303001-0.0098c0.2598-0.0903,0.4599991-0.27,0.5702972-0.5103
		c0.1202011-0.2397,0.1299019-0.5097,0.0401001-0.7597C51.919899,0.1570042,51.3398018-0.1227958,50.8300972,0.0574042z"/>
	<path d="M56.660099,9.8870039c-0.1903992-0.1898994-0.4403992-0.29-0.7098999-0.29h-2.3897018c-0.5604973,0-1,0.4404001-1,0.9902
		c0,0.5601006,0.4395027,1.0098,1,1.0098h2.3897018c0.5498009,0,1-0.4496994,1-1
		C56.9501991,10.3269043,56.8505974,10.0769043,56.660099,9.8870039z"/>
	<path d="M44.3505974,4.3973041c0.1191025,0,0.2294998-0.0200996,0.3398018-0.0600996l2.25-0.7900002
		c0.2598-0.0899,0.4599991-0.2701001,0.580101-0.5201001c0.1093979-0.2396998,0.1200981-0.5096998,0.0293007-0.7596998
		c-0.1699028-0.5000001-0.7598038-0.7901001-1.2695007-0.6104001l-2.2598,0.8003
		c-0.3906021,0.1396999-0.660202,0.5098-0.6699028,0.9296999c0,0.1201,0.0195007,0.23,0.0595016,0.3403001
		C43.5498009,4.1272044,43.9306984,4.3973041,44.3505974,4.3973041z"/>
	<path d="M48.7705002,9.587204h-2.4004021c-0.5498009,0-1,0.4502001-1,1s0.4501991,1,1,1h2.4004021
		c0.5497971,0,0.9892998-0.4502001,0.9892998-1S49.3202972,9.587204,48.7705002,9.587204z"/>
	<path d="M37.580101,6.7874041c0.110302,0,0.2196999-0.0102997,0.3300018-0.0502996l2.2598-0.7998004
		c0.25-0.0902996,0.4599991-0.27,0.5702972-0.5102997c0.1104012-0.2397003,0.1299019-0.5097003,0.0401001-0.77
		c-0.1796989-0.5-0.7598-0.7900002-1.2803001-0.6098003l-2.25,0.7998004c-0.3993988,0.1401-0.669899,0.52-0.669899,0.9301
		c0,0.1201997,0.0205002,0.2402997,0.0605011,0.3501C36.7803001,6.5271044,37.1601028,6.7874041,37.580101,6.7874041z"/>
	<path d="M46.9403992,17.6072044l-2.25-0.7900009c-0.5097008-0.1899986-1.1005974,0.1001015-1.2803001,0.6001015
		c-0.0400009,0.1201-0.0595016,0.2299995-0.0595016,0.3500996c0.0097008,0.419899,0.2793007,0.789999,0.6699028,0.9296989
		l2.2598,0.8003006c0.1102982,0.0400009,0.2196999,0.0599995,0.329998,0.0599995
		c0.4296989,0,0.7998009-0.2699986,0.9395027-0.6703987c0.0907974-0.25,0.0800972-0.5200005-0.0293007-0.7598
		C47.4003983,17.8772049,47.2001991,17.6971035,46.9403992,17.6072044z"/>
	<path d="M41.580101,9.5769043h-2.389698c-0.5605011,0-1,0.4502001-1,1c0,0.2700996,0.0995979,0.5200996,0.2901001,0.7104998
		c0.1893997,0.1899004,0.4393997,0.2895002,0.7001991,0.2895002h2.3993988c0.5498009,0,1-0.4399004,1-1
		C42.580101,10.0271044,42.1299019,9.5769043,41.580101,9.5769043z"/>
	<path d="M32.7305031,6.437304l-2.2608013,0.7998004c-0.5195007,0.1898999-0.7889996,0.7602997-0.6093998,1.2803001
		c0.1396999,0.3998995,0.5195999,0.6698999,0.9394989,0.6698999c0.1201,0,0.2305012-0.0200005,0.3408012-0.0601006l2.25-0.8002996
		c0.2598-0.0897999,0.4599991-0.2694998,0.5692978-0.5096998C34.080101,7.5769043,34.0898018,7.307404,34,7.057404
		C33.830101,6.547204,33.2402,6.2674041,32.7305031,6.437304z"/>
	<path d="M33.3906021,12.8269043l-2.25-0.7997999c-0.5107002-0.1801004-1.1006012,0.1098995-1.2803001,0.6098995
		c-0.1795998,0.5200005,0.0898991,1.1001005,0.6093998,1.2803001l2.2608013,0.7997999
		c0.1092987,0.0303001,0.2196999,0.0503006,0.329998,0.0503006c0.420002,0,0.7998009-0.2700005,0.9394989-0.6602001
		c0.0898018-0.2602005,0.080101-0.5303001-0.0401001-0.7700005C33.8506012,13.0970039,33.6504021,12.917304,33.3906021,12.8269043z"
		/>
	<path d="M40.1699028,15.217104l-2.2598-0.7997999c-0.5097008-0.1698999-1.0996017,0.1098003-1.2695007,0.6098003
		c-0.0400009,0.1202002-0.0605011,0.2299995-0.0605011,0.3500996c0,0.4200001,0.2705002,0.7901011,0.669899,0.9301996
		l2.25,0.7998009c0.110302,0.0401001,0.2196999,0.049799,0.3398018,0.049799c0.4199982,0,0.8008003-0.2596989,0.9404984-0.6595993
		c0.0898018-0.25,0.0703011-0.5303001-0.0401001-0.7700996C40.6201019,15.4871044,40.4199028,15.3074045,40.1699028,15.217104z"/>
</g>
<g>
</g>
<g>
</g>
<g>
</g>
<g>
</g>
<g>
</g>
<g>
</g>
<g>
</g>
<g>
</g>
<g>
</g>
<g>
</g>
<g>
</g>
<g>
</g>
<g>
</g>
<g>
</g>
<g>
</g>
</svg>
